<svg id="visual" viewBox="0 0 900 600" width="900" height="600" xmlns="http://www.w3.org/2000/svg" xmlns:xlink="http://www.w3.org/1999/xlink" version="1.1"><rect x="0" y="0" width="900" height="600" fill="#cfcfcf"></rect><path d="M0 296L129 301L257 302L386 288L514 309L643 294L771 301L900 302L900 601L771 601L643 601L514 601L386 601L257 601L129 601L0 601Z" fill="#1d1c1c"></path><path d="M0 385L129 395L257 387L386 388L514 391L643 392L771 398L900 396L900 601L771 601L643 601L514 601L386 601L257 601L129 601L0 601Z" fill="#121111"></path><path d="M0 483L129 468L257 469L386 481L514 470L643 483L771 473L900 489L900 601L771 601L643 601L514 601L386 601L257 601L129 601L0 601Z" fill="#000000"></path></svg>