<svg id="visual" viewBox="0 0 900 600" width="900" height="600" xmlns="http://www.w3.org/2000/svg" xmlns:xlink="http://www.w3.org/1999/xlink" version="1.1"><rect x="0" y="0" width="900" height="600" fill="#cdcdcd"></rect><path d="M0 193L300 298L600 346L900 474L900 601L600 601L300 601L0 601Z" fill="#878787"></path><path d="M0 443L300 153L600 258L900 281L900 601L600 601L300 601L0 601Z" fill="#8a8a8a"></path><path d="M0 180L300 173L600 318L900 154L900 601L600 601L300 601L0 601Z" fill="#8e8d8d"></path><path d="M0 215L300 439L600 501L900 492L900 601L600 601L300 601L0 601Z" fill="#919190"></path><path d="M0 347L300 349L600 326L900 354L900 601L600 601L300 601L0 601Z" fill="#959493"></path><path d="M0 497L300 353L600 486L900 519L900 601L600 601L300 601L0 601Z" fill="#989796"></path><path d="M0 460L300 387L600 375L900 415L900 601L600 601L300 601L0 601Z" fill="#9c9b9a"></path><path d="M0 368L300 453L600 508L900 525L900 601L600 601L300 601L0 601Z" fill="#9f9e9d"></path><path d="M0 466L300 392L600 530L900 516L900 601L600 601L300 601L0 601Z" fill="#a3a2a0"></path><path d="M0 546L300 471L600 453L900 435L900 601L600 601L300 601L0 601Z" fill="#a7a5a3"></path><path d="M0 580L300 518L600 555L900 547L900 601L600 601L300 601L0 601Z" fill="#aaa9a7"></path><path d="M0 535L300 578L600 557L900 522L900 601L600 601L300 601L0 601Z" fill="#aeacaa"></path></svg>