<svg id="visual" viewBox="0 0 900 600" width="900" height="600" xmlns="http://www.w3.org/2000/svg" xmlns:xlink="http://www.w3.org/1999/xlink" version="1.1"><rect x="0" y="0" width="900" height="600" fill="#cdcdcd"></rect><path d="M0 321L150 302L300 145L450 132L600 122L750 257L900 156L900 0L750 0L600 0L450 0L300 0L150 0L0 0Z" fill="#878787"></path><path d="M0 330L150 139L300 251L450 113L600 299L750 180L900 280L900 0L750 0L600 0L450 0L300 0L150 0L0 0Z" fill="#8c8c8c"></path><path d="M0 221L150 129L300 222L450 98L600 281L750 257L900 255L900 0L750 0L600 0L450 0L300 0L150 0L0 0Z" fill="#929191"></path><path d="M0 163L150 266L300 226L450 241L600 63L750 133L900 248L900 0L750 0L600 0L450 0L300 0L150 0L0 0Z" fill="#979696"></path><path d="M0 204L150 150L300 171L450 119L600 236L750 228L900 68L900 0L750 0L600 0L450 0L300 0L150 0L0 0Z" fill="#9d9c9b"></path><path d="M0 117L150 192L300 69L450 84L600 89L750 51L900 134L900 0L750 0L600 0L450 0L300 0L150 0L0 0Z" fill="#a3a1a0"></path><path d="M0 47L150 25L300 109L450 92L600 20L750 139L900 70L900 0L750 0L600 0L450 0L300 0L150 0L0 0Z" fill="#a8a7a5"></path><path d="M0 57L150 75L300 65L450 85L600 27L750 24L900 46L900 0L750 0L600 0L450 0L300 0L150 0L0 0Z" fill="#aeacaa"></path></svg>