<svg id="visual" viewBox="0 0 960 540" width="960" height="540" xmlns="http://www.w3.org/2000/svg" xmlns:xlink="http://www.w3.org/1999/xlink" version="1.1"><path d="M0 303L14.5 272.5C29 242 58 181 87.2 152.3C116.3 123.7 145.7 127.3 174.8 131.8C204 136.3 233 141.7 262 143.3C291 145 320 143 349 165.5C378 188 407 235 436.2 230.5C465.3 226 494.7 170 523.8 169C553 168 582 222 611 232C640 242 669 208 698 207.2C727 206.3 756 238.7 785.2 239.5C814.3 240.3 843.7 209.7 872.8 198.8C902 188 931 197 945.5 201.5L960 206L960 0L945.5 0C931 0 902 0 872.8 0C843.7 0 814.3 0 785.2 0C756 0 727 0 698 0C669 0 640 0 611 0C582 0 553 0 523.8 0C494.7 0 465.3 0 436.2 0C407 0 378 0 349 0C320 0 291 0 262 0C233 0 204 0 174.8 0C145.7 0 116.3 0 87.2 0C58 0 29 0 14.5 0L0 0Z" fill="#ffffff"></path><path d="M0 433L14.5 434.8C29 436.7 58 440.3 87.2 444C116.3 447.7 145.7 451.3 174.8 438.7C204 426 233 397 262 392.5C291 388 320 408 349 411.7C378 415.3 407 402.7 436.2 401.7C465.3 400.7 494.7 411.3 523.8 425.7C553 440 582 458 611 450C640 442 669 408 698 404.5C727 401 756 428 785.2 435.2C814.3 442.3 843.7 429.7 872.8 432.3C902 435 931 453 945.5 462L960 471L960 204L945.5 199.5C931 195 902 186 872.8 196.8C843.7 207.7 814.3 238.3 785.2 237.5C756 236.7 727 204.3 698 205.2C669 206 640 240 611 230C582 220 553 166 523.8 167C494.7 168 465.3 224 436.2 228.5C407 233 378 186 349 163.5C320 141 291 143 262 141.3C233 139.7 204 134.3 174.8 129.8C145.7 125.3 116.3 121.7 87.2 150.3C58 179 29 240 14.5 270.5L0 301Z" fill="#cacaca"></path><path d="M0 541L14.5 541C29 541 58 541 87.2 541C116.3 541 145.7 541 174.8 541C204 541 233 541 262 541C291 541 320 541 349 541C378 541 407 541 436.2 541C465.3 541 494.7 541 523.8 541C553 541 582 541 611 541C640 541 669 541 698 541C727 541 756 541 785.2 541C814.3 541 843.7 541 872.8 541C902 541 931 541 945.5 541L960 541L960 469L945.5 460C931 451 902 433 872.8 430.3C843.7 427.7 814.3 440.3 785.2 433.2C756 426 727 399 698 402.5C669 406 640 440 611 448C582 456 553 438 523.8 423.7C494.7 409.3 465.3 398.7 436.2 399.7C407 400.7 378 413.3 349 409.7C320 406 291 386 262 390.5C233 395 204 424 174.8 436.7C145.7 449.3 116.3 445.7 87.2 442C58 438.3 29 434.7 14.5 432.8L0 431Z" fill="#ffffff"></path></svg>